<svg width="40" height="40" viewBox="0 0 40 40" fill="none" xmlns="http://www.w3.org/2000/svg">
<rect width="40" height="40" rx="20" fill="#F3F5F7"/>
<path d="M25.7297 11.666C25.2967 11.666 24.9484 12.0143 24.9484 12.4473V13.489H23.9067C23.4737 13.489 23.1254 13.8373 23.1254 14.2703C23.1254 14.7033 23.4737 15.0516 23.9067 15.0516H24.9484V16.0933C24.9484 16.5263 25.2967 16.8746 25.7297 16.8746C26.1627 16.8746 26.511 16.5263 26.511 16.0933V15.0516H27.5527C27.9857 15.0516 28.334 14.7033 28.334 14.2703C28.334 13.8373 27.9857 13.489 27.5527 13.489H26.511V12.4473C26.511 12.0143 26.1627 11.666 25.7297 11.666ZM20.7653 16.0022C20.2802 15.7775 19.7203 15.7775 19.2352 16.0022L12.119 19.2901C11.8423 19.417 11.6665 19.6938 11.6665 19.9998C11.6665 20.3058 11.8423 20.5825 12.119 20.7094L19.2352 23.9973C19.7203 24.222 20.2802 24.222 20.7653 23.9973L27.8815 20.7094C28.1582 20.5825 28.334 20.3058 28.334 19.9998C28.334 19.6938 28.1582 19.417 27.8815 19.2901L20.7653 16.0022ZM21.2015 24.9447C20.4397 25.2962 19.5608 25.2962 18.799 24.9447L13.8509 22.6594L12.119 23.457C11.8423 23.5839 11.6665 23.8606 11.6665 24.1666C11.6665 24.4726 11.8423 24.7493 12.119 24.8763L19.2352 28.1642C19.7203 28.3888 20.2802 28.3888 20.7653 28.1642L27.8815 24.8763C28.1582 24.7493 28.334 24.4726 28.334 24.1666C28.334 23.8606 28.1582 23.5839 27.8815 23.457L26.1496 22.6561L21.2015 24.9414V24.9447Z" fill="#637381"/>
</svg>
