<svg width="32" height="32" viewBox="0 0 32 32" fill="none" xmlns="http://www.w3.org/2000/svg">
<path d="M13.9214 4.27228C14.4677 4.55469 14.676 5.22598 14.3936 5.77228L10.6158 13.0362H21.3843L17.6066 5.77228C17.3242 5.22598 17.5371 4.55469 18.0788 4.27228C18.6205 3.98987 19.2917 4.20284 19.5788 4.7445L23.889 13.0362H27.8519C28.6714 13.0362 29.3334 13.6982 29.3334 14.5177C29.3334 15.3371 28.6714 15.9991 27.8519 15.9991L25.4492 25.6056C25.1205 26.9251 23.9353 27.851 22.5742 27.851H9.42601C8.0649 27.851 6.87971 26.9251 6.55101 25.6056L4.14823 15.9991C3.32879 15.9991 2.66675 15.3371 2.66675 14.5177C2.66675 13.6982 3.32879 13.0362 4.14823 13.0362H8.11119L12.4214 4.7445C12.7038 4.19821 13.3751 3.98987 13.9214 4.27228ZM9.33341 17.851C9.94916 17.851 10.4445 17.3556 10.4445 16.7399C10.4445 16.1241 9.94916 15.6288 9.33341 15.6288C8.71767 15.6288 8.2223 16.1241 8.2223 16.7399C8.2223 17.3556 8.71767 17.851 9.33341 17.851ZM23.7779 16.7399C23.7779 16.1241 23.2825 15.6288 22.6667 15.6288C22.051 15.6288 21.5556 16.1241 21.5556 16.7399C21.5556 17.3556 22.051 17.851 22.6667 17.851C23.2825 17.851 23.7779 17.3556 23.7779 16.7399Z" fill="#919EAB"/>
</svg>
