<svg width="24" height="45" viewBox="0 0 24 45" fill="none" xmlns="http://www.w3.org/2000/svg">
<g clip-path="url(#clip0_7722_42693)">
<path fill-rule="evenodd" clip-rule="evenodd" d="M23.4992 43.7716C23.3409 43.9295 23.1528 44.0547 22.9457 44.1401C22.7386 44.2256 22.5166 44.2695 22.2924 44.2695C22.0682 44.2695 21.8462 44.2256 21.6391 44.1401C21.432 44.0547 21.2439 43.9295 21.0856 43.7716L0.631046 23.4345C0.472307 23.277 0.346367 23.09 0.260435 22.8841C0.174505 22.6782 0.130272 22.4575 0.130272 22.2346C0.130272 22.0117 0.174505 21.7909 0.260435 21.585C0.346367 21.3791 0.472307 21.1921 0.631046 21.0347L21.0856 0.697529C21.4057 0.379295 21.8398 0.200516 22.2924 0.200516C22.7451 0.200516 23.1792 0.379295 23.4992 0.697529C23.8193 1.01576 23.9991 1.44737 23.9991 1.89742C23.9991 2.34747 23.8193 2.77908 23.4992 3.09731L4.24809 22.2346L23.4992 41.3718C23.658 41.5293 23.7839 41.7163 23.8698 41.9222C23.9558 42.1281 24 42.3488 24 42.5717C24 42.7947 23.9558 43.0154 23.8698 43.2213C23.7839 43.4272 23.658 43.6142 23.4992 43.7716Z" fill="white"/>
</g>
<defs>
<clipPath id="clip0_7722_42693">
<rect width="24" height="44.4706" fill="white" transform="translate(24 44.4688) rotate(-180)"/>
</clipPath>
</defs>
</svg>
