<svg width="24" height="45" viewBox="0 0 24 45" fill="none" xmlns="http://www.w3.org/2000/svg">
<g clip-path="url(#clip0_7722_42691)">
<path fill-rule="evenodd" clip-rule="evenodd" d="M0.565715 1.16587C0.724052 1.00804 0.912151 0.882823 1.11924 0.797385C1.32632 0.711947 1.54833 0.667969 1.77253 0.667969C1.99674 0.667969 2.21874 0.711947 2.42583 0.797385C2.63292 0.882823 2.82101 1.00804 2.97935 1.16587L23.4339 21.503C23.5926 21.6605 23.7186 21.8475 23.8045 22.0534C23.8904 22.2593 23.9347 22.48 23.9347 22.7029C23.9347 22.9258 23.8904 23.1466 23.8045 23.3525C23.7186 23.5584 23.5926 23.7454 23.4339 23.9028L2.97935 44.24C2.65928 44.5582 2.22518 44.737 1.77253 44.737C1.31989 44.737 0.885783 44.5582 0.565715 44.24C0.245647 43.9217 0.0658339 43.4901 0.0658339 43.0401C0.0658339 42.59 0.245647 42.1584 0.565715 41.8402L19.8169 22.7029L0.565715 3.56565C0.406976 3.40823 0.281034 3.22121 0.195103 3.01531C0.109172 2.80941 0.0649414 2.58868 0.0649414 2.36576C0.0649414 2.14284 0.109172 1.92211 0.195103 1.71621C0.281034 1.51032 0.406976 1.3233 0.565715 1.16587Z" fill="white"/>
</g>
<defs>
<clipPath id="clip0_7722_42691">
<rect width="24" height="44.4706" fill="white" transform="translate(0 0.46875)"/>
</clipPath>
</defs>
</svg>
