<svg width="33" height="33" viewBox="0 0 33 33" fill="none" xmlns="http://www.w3.org/2000/svg">
<path opacity="0.1" fill-rule="evenodd" clip-rule="evenodd" d="M0.5 16.5C0.5 7.66344 7.66344 0.5 16.5 0.5C25.3366 0.5 32.5 7.66344 32.5 16.5C32.5 25.3366 25.3366 32.5 16.5 32.5C7.66344 32.5 0.5 25.3366 0.5 16.5Z" fill="#5E60CE"/>
<path d="M20.949 9.51074V11.9413H20.7571C20.3094 11.9413 19.7977 11.9413 19.3499 11.9413C18.7103 11.9413 18.2626 12.1972 18.1986 13.0287C18.1986 13.6044 18.1986 14.9476 18.1986 14.9476C18.1986 14.9476 19.6698 14.9476 20.3734 14.9476C20.5652 14.9476 20.6932 14.9476 20.8851 14.9476C20.7571 15.8431 20.6292 16.7386 20.5652 17.6341H18.2626V24.4142H15.4482V17.5701H13.1455V14.8836H15.4482V14.6918C15.4482 14.1801 15.4482 13.6044 15.4482 13.0927C15.4482 12.7729 15.4482 12.3891 15.5121 12.0693C15.6401 11.2377 16.0239 10.5342 16.7274 10.0224C17.3031 9.5747 18.0067 9.44678 18.7743 9.38281C19.222 9.38281 19.7337 9.38281 20.1815 9.38281C20.4373 9.44678 20.6932 9.44678 20.949 9.51074Z" fill="#5E60CE"/>
</svg>
