<svg width="40" height="40" viewBox="0 0 40 40" fill="none" xmlns="http://www.w3.org/2000/svg">
<rect width="40" height="40" rx="20" fill="#F3F5F7"/>
<path d="M13.216 21.1982L19.0981 26.3354C19.3423 26.5486 19.6646 26.6673 19.9998 26.6673C20.3351 26.6673 20.6574 26.5486 20.9015 26.3354L26.7837 21.1982C27.7733 20.3364 28.3332 19.1274 28.3332 17.8637V17.6871C28.3332 15.5585 26.6893 13.7435 24.4465 13.3933C22.9621 13.1619 21.4517 13.6156 20.3905 14.6084L19.9998 14.9738L19.6092 14.6084C18.548 13.6156 17.0376 13.1619 15.5532 13.3933C13.3104 13.7435 11.6665 15.5585 11.6665 17.6871V17.8637C11.6665 19.1274 12.2264 20.3364 13.216 21.1982Z" fill="#637381"/>
</svg>
