<svg width="33" height="33" viewBox="0 0 33 33" fill="none" xmlns="http://www.w3.org/2000/svg">
<path opacity="0.1" fill-rule="evenodd" clip-rule="evenodd" d="M0.5 16.5C0.5 7.66344 7.66344 0.5 16.5 0.5C25.3366 0.5 32.5 7.66344 32.5 16.5C32.5 25.3366 25.3366 32.5 16.5 32.5C7.66344 32.5 0.5 25.3366 0.5 16.5Z" fill="#5E60CE"/>
<path fill-rule="evenodd" clip-rule="evenodd" d="M16.5009 7.96484C14.1834 7.96484 13.8925 7.97498 12.9823 8.0164C12.0739 8.058 11.4538 8.20182 10.9112 8.41285C10.3499 8.63081 9.87384 8.92236 9.39952 9.39686C8.92485 9.87117 8.63329 10.3473 8.41462 10.9083C8.20307 11.4511 8.05906 12.0714 8.01818 12.9795C7.97746 13.8897 7.9668 14.1807 7.9668 16.4983C7.9668 18.8158 7.97711 19.1058 8.01835 20.016C8.06013 20.9244 8.20395 21.5445 8.4148 22.0871C8.63294 22.6484 8.9245 23.1245 9.39899 23.5988C9.87313 24.0735 10.3492 24.3657 10.9101 24.5837C11.4531 24.7947 12.0733 24.9385 12.9816 24.9801C13.8918 25.0216 14.1825 25.0317 16.4999 25.0317C18.8176 25.0317 19.1075 25.0216 20.0178 24.9801C20.9262 24.9385 21.547 24.7947 22.09 24.5837C22.651 24.3657 23.1264 24.0735 23.6006 23.5988C24.0752 23.1245 24.3668 22.6484 24.5855 22.0873C24.7952 21.5445 24.9392 20.9243 24.9819 20.0162C25.0228 19.1059 25.0335 18.8158 25.0335 16.4983C25.0335 14.1807 25.0228 13.8899 24.9819 12.9797C24.9392 12.0712 24.7952 11.4511 24.5855 10.9085C24.3668 10.3473 24.0752 9.87117 23.6006 9.39686C23.1259 8.92219 22.6512 8.63063 22.0894 8.41285C21.5454 8.20182 20.925 8.058 20.0165 8.0164C19.1063 7.97498 18.8165 7.96484 16.4983 7.96484H16.5009ZM15.7354 9.50261C15.9626 9.50226 16.2161 9.50261 16.5009 9.50261C18.7793 9.50261 19.0494 9.51079 19.9491 9.55168C20.7811 9.58973 21.2327 9.72875 21.5335 9.84555C21.9317 10.0002 22.2156 10.1851 22.5141 10.4838C22.8128 10.7824 22.9977 11.0669 23.1527 11.4651C23.2695 11.7656 23.4087 12.2171 23.4466 13.0491C23.4875 13.9487 23.4963 14.2189 23.4963 16.4963C23.4963 18.7736 23.4875 19.0439 23.4466 19.9434C23.4085 20.7754 23.2695 21.227 23.1527 21.5275C22.998 21.9257 22.8128 22.2092 22.5141 22.5077C22.2154 22.8064 21.9319 22.9913 21.5335 23.146C21.233 23.2633 20.7811 23.402 19.9491 23.44C19.0495 23.4809 18.7793 23.4898 16.5009 23.4898C14.2223 23.4898 13.9522 23.4809 13.0527 23.44C12.2207 23.4016 11.7691 23.2626 11.4681 23.1458C11.0699 22.9911 10.7855 22.8062 10.4868 22.5075C10.1881 22.2089 10.0032 21.9251 9.8482 21.5267C9.7314 21.2263 9.5922 20.7747 9.55433 19.9427C9.51344 19.0432 9.50527 18.7729 9.50527 16.4942C9.50527 14.2154 9.51344 13.9466 9.55433 13.047C9.59238 12.215 9.7314 11.7634 9.8482 11.4626C10.0029 11.0644 10.1881 10.78 10.4868 10.4813C10.7855 10.1826 11.0699 9.99773 11.4681 9.84271C11.7689 9.72537 12.2207 9.5867 13.0527 9.54848C13.8399 9.51292 14.145 9.50226 15.7354 9.50048V9.50261ZM21.056 10.9195C20.4906 10.9195 20.032 11.3777 20.032 11.9432C20.032 12.5085 20.4906 12.9672 21.056 12.9672C21.6213 12.9672 22.08 12.5085 22.08 11.9432C22.08 11.3778 21.6213 10.9195 21.056 10.9195ZM16.5009 12.116C14.0808 12.116 12.1187 14.0781 12.1187 16.4982C12.1187 18.9184 14.0808 20.8796 16.5009 20.8796C18.9211 20.8796 20.8825 18.9184 20.8825 16.4982C20.8825 14.0781 18.9211 12.116 16.5009 12.116ZM16.5009 13.6538C18.0718 13.6538 19.3454 14.9272 19.3454 16.4982C19.3454 18.0691 18.0718 19.3427 16.5009 19.3427C14.9299 19.3427 13.6564 18.0691 13.6564 16.4982C13.6564 14.9272 14.9299 13.6538 16.5009 13.6538Z" fill="#5E60CE"/>
</svg>
