<svg width="20" height="20" viewBox="0 0 20 20" fill="none" xmlns="http://www.w3.org/2000/svg">
<path d="M5.07148 19.9293C3.88207 19.8752 3.23595 19.6772 2.80619 19.5096C2.23675 19.2879 1.83077 19.024 1.40339 18.5972C0.976016 18.1704 0.711505 17.7644 0.49098 17.195C0.323357 16.7652 0.12542 16.1191 0.0713288 14.9297C0.0118881 13.644 0 13.2582 0 10.0009C0 6.74354 0.0130769 6.35837 0.0707344 5.07148C0.124825 3.88207 0.323952 3.23714 0.490385 2.80619C0.712099 2.23675 0.97661 1.83077 1.4028 1.4028C1.82958 0.976016 2.23556 0.71091 2.8056 0.490385C3.23536 0.322763 3.88148 0.124825 5.07088 0.0707344C6.35718 0.0118881 6.74354 0 9.9997 0C13.2571 0 13.6422 0.0130769 14.9291 0.0707344C16.1185 0.124825 16.7635 0.323952 17.1944 0.490385C17.7638 0.71091 18.1698 0.976016 18.5972 1.4028C19.0246 1.82958 19.2879 2.23616 19.5096 2.8056C19.6772 3.23536 19.8752 3.88148 19.9293 5.07088C19.9881 6.35777 20 6.74295 20 10.0003C20 13.2565 19.9881 13.6428 19.9293 14.9297C19.8752 16.1191 19.6761 16.7652 19.5096 17.195C19.2879 17.7644 19.024 18.1704 18.5972 18.5972C18.1704 19.024 17.7638 19.2879 17.1944 19.5096C16.7646 19.6772 16.1185 19.8752 14.9291 19.9293C13.6434 19.9881 13.2571 20 9.9997 20C6.74354 20 6.35718 19.9887 5.07148 19.9293Z" fill="#18191F" fill-opacity="0.55"/>
<path d="M7.73107 9.92786C7.73107 8.71365 8.71512 7.72908 9.92933 7.72908C11.1435 7.72908 12.1281 8.71365 12.1281 9.92786C12.1281 11.1421 11.1435 12.1267 9.92933 12.1267C8.71512 12.1267 7.73107 11.1421 7.73107 9.92786ZM6.54245 9.92786C6.54245 11.7984 8.05875 13.3147 9.92933 13.3147C11.7999 13.3147 13.3162 11.7984 13.3162 9.92786C13.3162 8.05729 11.7999 6.54098 9.92933 6.54098C8.05875 6.54098 6.5425 8.05718 6.5425 9.92786M12.6588 6.40669C12.6588 6.56324 12.7051 6.71628 12.7921 6.84648C12.879 6.97668 13.0026 7.07817 13.1472 7.13814C13.2918 7.1981 13.4509 7.21384 13.6044 7.18336C13.758 7.15288 13.8991 7.07756 14.0098 6.96691C14.1205 6.85626 14.196 6.71526 14.2266 6.56173C14.2572 6.40821 14.2416 6.24906 14.1817 6.10441C14.1219 5.95976 14.0205 5.8361 13.8903 5.74908C13.7602 5.66205 13.6072 5.61557 13.4507 5.61551H13.4503C13.2405 5.61561 13.0393 5.69898 12.8909 5.84733C12.7425 5.99568 12.659 6.19686 12.6588 6.40669ZM7.26461 15.2968C6.62155 15.2675 6.27202 15.1604 6.03974 15.0699C5.73179 14.95 5.51207 14.8072 5.28106 14.5765C5.05005 14.3458 4.90705 14.1263 4.78769 13.8184C4.69715 13.5862 4.59003 13.2365 4.5608 12.5935C4.52882 11.8982 4.52243 11.6894 4.52243 9.92797C4.52243 8.16657 4.52935 7.9583 4.5608 7.26246C4.59008 6.61939 4.69799 6.27045 4.78769 6.03759C4.90758 5.72964 5.05037 5.50992 5.28106 5.27891C5.51176 5.0479 5.73127 4.9049 6.03974 4.78554C6.27191 4.69499 6.62155 4.58788 7.26461 4.55865C7.95987 4.52667 8.16872 4.52028 9.92933 4.52028C11.6899 4.52028 11.899 4.52709 12.5948 4.55875C13.2379 4.58804 13.5869 4.69594 13.8197 4.78565C14.1277 4.90501 14.3474 5.04832 14.5784 5.27902C14.8094 5.50971 14.9519 5.72975 15.0718 6.03769C15.1623 6.26987 15.2694 6.6195 15.2987 7.26257C15.3306 7.9584 15.337 8.16667 15.337 9.92808C15.337 11.6895 15.3306 11.8977 15.2987 12.5936C15.2694 13.2367 15.1617 13.5862 15.0718 13.8185C14.9519 14.1264 14.8091 14.3461 14.5784 14.5766C14.3477 14.8071 14.1277 14.9501 13.8197 15.07C13.5875 15.1605 13.2379 15.2676 12.5948 15.2969C11.8996 15.3288 11.6907 15.3352 9.92933 15.3352C8.16793 15.3352 7.95966 15.3288 7.26461 15.2969M7.21 3.37198C6.50783 3.40395 6.02803 3.51529 5.60901 3.67834C5.17532 3.84672 4.80769 4.07261 4.44059 4.43913C4.0735 4.80565 3.84818 5.17332 3.6798 5.60754C3.51675 6.02682 3.40542 6.50637 3.37344 7.20853C3.34094 7.91181 3.3335 8.13665 3.3335 9.92786C3.3335 11.7191 3.34094 11.9439 3.37344 12.6472C3.40542 13.3494 3.51675 13.8289 3.6798 14.2482C3.84818 14.6819 4.07355 15.0502 4.44059 15.4166C4.80764 15.783 5.17479 16.0085 5.60901 16.1774C6.02882 16.3404 6.50783 16.4518 7.21 16.4838C7.91364 16.5157 8.13811 16.5237 9.92933 16.5237C11.7205 16.5237 11.9454 16.5163 12.6487 16.4838C13.3509 16.4518 13.8304 16.3404 14.2497 16.1774C14.6833 16.0085 15.051 15.7831 15.4181 15.4166C15.7852 15.0501 16.01 14.6819 16.1789 14.2482C16.3419 13.8289 16.4538 13.3494 16.4852 12.6472C16.5172 11.9434 16.5246 11.7191 16.5246 9.92786C16.5246 8.13665 16.5172 7.91181 16.4852 7.20853C16.4532 6.50632 16.3419 6.02656 16.1789 5.60754C16.01 5.17385 15.7846 4.80623 15.4181 4.43913C15.0515 4.07203 14.6833 3.84672 14.2502 3.67834C13.8304 3.51529 13.3508 3.40342 12.6492 3.37198C11.9458 3.33984 11.7211 3.33203 9.93012 3.33203C8.13917 3.33203 7.91391 3.33947 7.21026 3.37198" fill="white"/>
</svg>
