<svg width="33" height="33" viewBox="0 0 33 33" fill="none" xmlns="http://www.w3.org/2000/svg">
<path opacity="0.1" fill-rule="evenodd" clip-rule="evenodd" d="M0.5 16.5C0.5 7.66344 7.66344 0.5 16.5 0.5C25.3366 0.5 32.5 7.66344 32.5 16.5C32.5 25.3366 25.3366 32.5 16.5 32.5C7.66344 32.5 0.5 25.3366 0.5 16.5Z" fill="#5E60CE"/>
<path d="M18.716 15.957C17.399 15.957 17.2108 16.9605 17.2108 18.0266V21.9778H14.7021V13.9501H17.0854V15.0163C17.399 14.3891 18.2143 13.6992 19.4059 13.6992C21.9145 13.6992 22.3535 15.3298 22.3535 17.4622V21.8523H19.9076V17.9639C19.9703 17.1486 19.9703 15.957 18.716 15.957Z" fill="#5E60CE"/>
<path d="M13.1971 13.9531H10.6885V21.9181H13.1971V13.9531Z" fill="#5E60CE"/>
<path d="M11.9425 10C12.7578 10 13.385 10.6272 13.385 11.4425C13.385 12.2578 12.7578 12.885 11.9425 12.885C11.1272 12.885 10.5 12.2578 10.5 11.4425C10.5 10.6272 11.1272 10 11.9425 10Z" fill="#5E60CE"/>
</svg>
