<svg width="20" height="18" viewBox="0 0 20 18" fill="none" xmlns="http://www.w3.org/2000/svg">
<path d="M0 0.84375C0 0.376172 0.374705 0 0.840461 0H2.43383C3.20426 0 3.88713 0.45 4.2058 1.125H18.5987C19.5197 1.125 20.1921 2.00391 19.9504 2.89688L18.5146 8.25117C18.217 9.35508 17.2189 10.125 16.0808 10.125H5.97778L6.16688 11.127C6.24392 11.5242 6.59061 11.8125 6.99333 11.8125H17.0894C17.5551 11.8125 17.9298 12.1887 17.9298 12.6562C17.9298 13.1238 17.5551 13.5 17.0894 13.5H6.99333C5.78167 13.5 4.7416 12.6352 4.51748 11.4434L2.71049 1.91602C2.68597 1.78242 2.57041 1.6875 2.43383 1.6875H0.840461C0.374705 1.6875 0 1.31133 0 0.84375ZM4.48246 16.3125C4.48246 16.0909 4.52593 15.8715 4.61041 15.6667C4.69488 15.462 4.8187 15.276 4.97479 15.1193C5.13087 14.9626 5.31618 14.8383 5.52012 14.7535C5.72406 14.6686 5.94264 14.625 6.16338 14.625C6.38412 14.625 6.6027 14.6686 6.80664 14.7535C7.01058 14.8383 7.19588 14.9626 7.35197 15.1193C7.50806 15.276 7.63187 15.462 7.71635 15.6667C7.80082 15.8715 7.8443 16.0909 7.8443 16.3125C7.8443 16.5341 7.80082 16.7535 7.71635 16.9583C7.63187 17.163 7.50806 17.349 7.35197 17.5057C7.19588 17.6624 7.01058 17.7867 6.80664 17.8715C6.6027 17.9564 6.38412 18 6.16338 18C5.94264 18 5.72406 17.9564 5.52012 17.8715C5.31618 17.7867 5.13087 17.6624 4.97479 17.5057C4.8187 17.349 4.69488 17.163 4.61041 16.9583C4.52593 16.7535 4.48246 16.5341 4.48246 16.3125ZM16.2489 14.625C16.6947 14.625 17.1223 14.8028 17.4375 15.1193C17.7527 15.4357 17.9298 15.8649 17.9298 16.3125C17.9298 16.7601 17.7527 17.1893 17.4375 17.5057C17.1223 17.8222 16.6947 18 16.2489 18C15.8031 18 15.3755 17.8222 15.0603 17.5057C14.7451 17.1893 14.568 16.7601 14.568 16.3125C14.568 15.8649 14.7451 15.4357 15.0603 15.1193C15.3755 14.8028 15.8031 14.625 16.2489 14.625ZM8.82484 5.625C8.82484 6.01172 9.14001 6.32812 9.52522 6.32812H11.0661V7.875C11.0661 8.26172 11.3812 8.57812 11.7664 8.57812C12.1517 8.57812 12.4668 8.26172 12.4668 7.875V6.32812H14.0077C14.3929 6.32812 14.7081 6.01172 14.7081 5.625C14.7081 5.23828 14.3929 4.92188 14.0077 4.92188H12.4668V3.375C12.4668 2.98828 12.1517 2.67188 11.7664 2.67188C11.3812 2.67188 11.0661 2.98828 11.0661 3.375V4.92188H9.52522C9.14001 4.92188 8.82484 5.23828 8.82484 5.625Z" fill="#5E60CE"/>
</svg>
