<svg width="33" height="33" viewBox="0 0 33 33" fill="none" xmlns="http://www.w3.org/2000/svg">
<path opacity="0.1" fill-rule="evenodd" clip-rule="evenodd" d="M0.5 16.5C0.5 7.66344 7.66344 0.5 16.5 0.5C25.3366 0.5 32.5 7.66344 32.5 16.5C32.5 25.3366 25.3366 32.5 16.5 32.5C7.66344 32.5 0.5 25.3366 0.5 16.5Z" fill="#5E60CE"/>
<path fill-rule="evenodd" clip-rule="evenodd" d="M16.0208 13.5066L16.0544 14.0602L15.4948 13.9924C13.4579 13.7325 11.6784 12.8512 10.1676 11.3711L9.42891 10.6367L9.23865 11.179C8.83575 12.388 9.09316 13.6647 9.93253 14.5234C10.3802 14.998 10.2795 15.0658 9.50725 14.7833C9.23865 14.6929 9.00363 14.6251 8.98124 14.659C8.9029 14.7381 9.1715 15.7663 9.38414 16.1731C9.67513 16.738 10.2683 17.2916 10.9174 17.6193L11.4658 17.8792L10.8167 17.8905C10.1899 17.8905 10.1676 17.9018 10.2347 18.139C10.4585 18.8734 11.3427 19.6531 12.3276 19.992L13.0214 20.2293L12.4171 20.5908C11.5218 21.1106 10.4697 21.4044 9.41772 21.4269C8.91409 21.4382 8.5 21.4834 8.5 21.5173C8.5 21.6303 9.86538 22.2631 10.66 22.5116C13.0438 23.246 15.8753 22.9297 18.0017 21.6755C19.5126 20.7829 21.0235 19.009 21.7286 17.2916C22.1091 16.3764 22.4896 14.7042 22.4896 13.902C22.4896 13.3823 22.5232 13.3145 23.1499 12.6931C23.5192 12.3315 23.8662 11.936 23.9333 11.8231C24.0452 11.6084 24.034 11.6084 23.4633 11.8005C22.512 12.1394 22.3777 12.0942 22.8477 11.5858C23.1947 11.2242 23.6088 10.5689 23.6088 10.3768C23.6088 10.3429 23.4409 10.3994 23.2506 10.5011C23.0492 10.6141 22.6015 10.7836 22.2658 10.8853L21.6614 11.0773L21.113 10.7045C20.8108 10.5011 20.3856 10.2751 20.1617 10.2073C19.5909 10.0492 18.718 10.0718 18.2032 10.2525C16.8042 10.761 15.9201 12.0716 16.0208 13.5066Z" fill="#5E60CE"/>
</svg>
