<svg width="20" height="20" viewBox="0 0 20 20" fill="none" xmlns="http://www.w3.org/2000/svg">
<g clip-path="url(#clip0_7724_44289)">
<path d="M0 20L1.41356 14.8669C0.539637 13.3603 0.0811843 11.654 0.0859598 9.9097C0.0859598 4.44392 4.55587 0 10.043 0C12.7077 0 15.2101 1.03137 17.0869 2.90399C18.9685 4.77662 20.0048 7.26711 20 9.91445C20 15.3802 15.5301 19.8242 10.0382 19.8242H10.0334C8.36676 19.8242 6.72874 19.4059 5.2722 18.6169L0 20ZM5.52531 16.8251L5.82617 17.0057C7.09646 17.7567 8.553 18.1511 10.0382 18.1559H10.043C14.6036 18.1559 18.319 14.4629 18.319 9.9192C18.319 7.71863 17.4594 5.65114 15.8978 4.09221C14.3362 2.53327 12.254 1.67776 10.043 1.67776C5.48233 1.673 1.76695 5.36597 1.76695 9.9097C1.76695 11.4639 2.20153 12.98 3.03247 14.2918L3.22827 14.6055L2.39255 17.6426L5.52531 16.8251Z" fill="white"/>
<path d="M0.348633 19.6537L1.71444 14.6965C0.869167 13.2469 0.425042 11.5977 0.425042 9.91515C0.429817 4.63948 4.74213 0.347656 10.043 0.347656C12.617 0.347656 15.0287 1.34576 16.8434 3.15184C18.6581 4.95792 19.6562 7.36287 19.6562 9.9199C19.6562 15.1956 15.3391 19.4874 10.043 19.4874H10.0382C8.42885 19.4874 6.84815 19.0834 5.44414 18.3229L0.348633 19.6537Z" fill="#18191F" fill-opacity="0.55"/>
<path d="M0 20L1.41356 14.8669C0.539637 13.3603 0.0811843 11.654 0.0859598 9.9097C0.0859598 4.44392 4.55587 0 10.043 0C12.7077 0 15.2101 1.03137 17.0869 2.90399C18.9685 4.77662 20.0048 7.26711 20 9.91445C20 15.3802 15.5301 19.8242 10.0382 19.8242H10.0334C8.36676 19.8242 6.72874 19.4059 5.2722 18.6169L0 20ZM5.52531 16.8251L5.82617 17.0057C7.09646 17.7567 8.553 18.1511 10.0382 18.1559H10.043C14.6036 18.1559 18.319 14.4629 18.319 9.9192C18.319 7.71863 17.4594 5.65114 15.8978 4.09221C14.3362 2.53327 12.254 1.67776 10.043 1.67776C5.48233 1.673 1.76695 5.36597 1.76695 9.9097C1.76695 11.4639 2.20153 12.98 3.03247 14.2918L3.22827 14.6055L2.39255 17.6426L5.52531 16.8251Z" fill="white"/>
<path fill-rule="evenodd" clip-rule="evenodd" d="M7.55508 5.76454C7.36884 5.35104 7.17304 5.34154 6.99634 5.33678C6.85308 5.33203 6.68593 5.33203 6.51879 5.33203C6.35165 5.33203 6.08422 5.39382 5.85499 5.64097C5.62576 5.88811 4.98584 6.48697 4.98584 7.70846C4.98584 8.92519 5.87887 10.1039 6.00303 10.2702C6.1272 10.4366 7.727 13.0174 10.2533 14.0107C12.3545 14.8377 12.7843 14.6714 13.238 14.6286C13.6917 14.5858 14.7088 14.0298 14.919 13.4499C15.1243 12.8701 15.1243 12.3758 15.0622 12.2712C15.0002 12.1666 14.833 12.1048 14.5847 11.9813C14.3364 11.8577 13.1138 11.2588 12.8846 11.1733C12.6554 11.0925 12.4882 11.0497 12.3259 11.2969C12.1587 11.544 11.6812 12.1001 11.5379 12.2664C11.3946 12.4328 11.2466 12.4518 10.9983 12.3282C10.7499 12.2047 9.94763 11.9432 8.9973 11.0972C8.25709 10.4413 7.75566 9.62861 7.61239 9.38146C7.46912 9.13431 7.59806 9.00123 7.72223 8.87766C7.83206 8.76834 7.97056 8.58774 8.09472 8.44515C8.21888 8.30256 8.26186 8.198 8.34305 8.03165C8.42423 7.8653 8.38603 7.72272 8.32395 7.59914C8.26186 7.48032 7.77476 6.25408 7.55508 5.76454Z" fill="white"/>
</g>
<defs>
<clipPath id="clip0_7724_44289">
<rect width="20" height="20" rx="6" fill="white"/>
</clipPath>
</defs>
</svg>
